<svg id="Capa_1" data-name="Capa 1" xmlns="http://www.w3.org/2000/svg" width="109.26" height="82.14" viewBox="0 0 109.26 82.14">
  <defs>
    <style>
      .cls-1 {
        fill: rgb(204, 255, 255);
      }
    </style>
  </defs>
  <g>
    <path class="cls-1" d="M101,8.09H73.49l-.71-3.23A6.11,6.11,0,0,0,65.85.19h-22a5.48,5.48,0,0,0-4.09.5,6.22,6.22,0,0,0-3.05,4l-.8,3.36H26.48A4.32,4.32,0,0,0,22.4,4.86H11.17a4,4,0,0,0-3.9,3.3A8.56,8.56,0,0,0,0,16.57V73.78a8.34,8.34,0,0,0,8.3,8.36H101a8.34,8.34,0,0,0,8.29-8.37V16.56A8.39,8.39,0,0,0,101,8.09Zm3.62,65.69A3.66,3.66,0,0,1,101,77.46H8.3a3.66,3.66,0,0,1-3.63-3.68V16.57a3.77,3.77,0,0,1,3.63-3.8h3.56V9.53H21.92v3.24H39.58l1.66-7a1.55,1.55,0,0,1,.74-1,.79.79,0,0,1,.72-.07l.38.13H66.24l.2,0a1.47,1.47,0,0,1,1.78,1l1.51,6.91H101a3.76,3.76,0,0,1,3.62,3.8Z"/>
    <path class="cls-1" d="M54.48,18.4A27.77,27.77,0,1,0,82.25,46.16,27.79,27.79,0,0,0,54.48,18.4Zm0,50.86a23.1,23.1,0,1,1,23.1-23.09A23.12,23.12,0,0,1,54.48,69.26Z"/>
    <path class="cls-1" d="M99.69,15.83H85.26a2,2,0,0,0-2.06,2V23a2,2,0,0,0,2.06,2.13H99.69a2.16,2.16,0,0,0,2.2-2.13v-5.2A2.06,2.06,0,0,0,99.69,15.83Z"/>
    <circle class="cls-1" cx="54.48" cy="46.17" r="16.86" transform="translate(-9.02 78.83) rotate(-67.5)"/>
  </g>
</svg>
